<svg xmlns="http://www.w3.org/2000/svg" viewBox="0 0 84.852 93.75">
    <path
        d="M89.3,16.523A10.286,10.286,0,0,1,79.024,6.25,3.124,3.124,0,0,0,75.9,3.125l-51.8,0a3.124,3.124,0,0,0-3.125,3.125A10.286,10.286,0,0,1,10.7,16.527a3.124,3.124,0,0,0-3.125,3.125V50.668A43.508,43.508,0,0,0,35.516,91.484l13.352,5.18a3.147,3.147,0,0,0,2.266,0l13.352-5.18A43.5,43.5,0,0,0,92.427,50.668l0-31.02A3.124,3.124,0,0,0,89.3,16.523ZM50,60.023A10.023,10.023,0,1,1,60.023,50,10.034,10.034,0,0,1,50,60.023ZM13.828,50.664V22.476a16.576,16.576,0,0,0,13.1-13.1H46.879v24.66a16.262,16.262,0,0,0,0,31.922V89.175l-9.1-3.531A37.3,37.3,0,0,1,13.828,50.655Zm72.344,0A37.293,37.293,0,0,1,62.219,85.652l-9.1,3.531V65.964a16.262,16.262,0,0,0,0-31.922l0-24.668H73.074a16.576,16.576,0,0,0,13.1,13.1V50.664Z"
        transform="translate(-7.575 -3.125)" />
</svg>