<svg xmlns="http://www.w3.org/2000/svg" viewBox="0 0 44.162 41.913">
    <path
        d="M63.47,30.69c-5.38-1.51-9.95-.34-12.5,5.31H49.04c-2.55-5.64-7.13-6.82-12.5-5.31-6.14,1.73-10.23,6.3-8,14.25S48.14,72,48.14,72h3.72S69.23,52.88,71.47,44.94,69.61,32.42,63.47,30.69ZM57.99,52.62a1.329,1.329,0,0,1-1.33,1.33H52v4.66a1.329,1.329,0,0,1-1.33,1.33H49.34a1.329,1.329,0,0,1-1.33-1.33V53.95H43.35a1.329,1.329,0,0,1-1.33-1.33V51.29a1.329,1.329,0,0,1,1.33-1.33H48V45.3a1.329,1.329,0,0,1,1.33-1.33h1.33a1.329,1.329,0,0,1,1.33,1.33v4.66h4.66a1.329,1.329,0,0,1,1.33,1.33v1.33Z"
        transform="translate(-27.924 -30.087)" />
</svg>